<?xml version="1.0" encoding="UTF-8" standalone="no"?>
<svg
   width="16"
   height="16"
   viewBox="0 0 16 16"
   fill="none"
   version="1.1"
   id="svg324"
   sodipodi:docname="tab_number2.svg"
   inkscape:version="1.2 (dc2aedaf03, 2022-05-15)"
   xmlns:inkscape="http://www.inkscape.org/namespaces/inkscape"
   xmlns:sodipodi="http://sodipodi.sourceforge.net/DTD/sodipodi-0.dtd"
   xmlns="http://www.w3.org/2000/svg"
   xmlns:svg="http://www.w3.org/2000/svg">
  <sodipodi:namedview
     id="namedview326"
     pagecolor="#505050"
     bordercolor="#eeeeee"
     borderopacity="1"
     inkscape:showpageshadow="0"
     inkscape:pageopacity="0"
     inkscape:pagecheckerboard="0"
     inkscape:deskcolor="#505050"
     showgrid="false"
     inkscape:zoom="52.3125"
     inkscape:cx="6.776583"
     inkscape:cy="8.0095579"
     inkscape:window-width="1920"
     inkscape:window-height="1017"
     inkscape:window-x="-8"
     inkscape:window-y="-8"
     inkscape:window-maximized="1"
     inkscape:current-layer="g317" />
  <g
     clip-path="url(#clip0_13_17)"
     id="g317">
    <path
       fill-rule="evenodd"
       clip-rule="evenodd"
       d="M2 3.5C1.72421 3.5 1.5 3.72421 1.5 4V12C1.5 12.2758 1.72421 12.5 2 12.5H14C14.2758 12.5 14.5 12.2758 14.5 12V4C14.5 3.72421 14.2758 3.5 14 3.5H2ZM0 4C0 2.89579 0.895786 2 2 2H14C15.1042 2 16 2.89579 16 4V12C16 13.1042 15.1042 14 14 14H2C0.895786 14 0 13.1042 0 12V4Z"
       fill="context-fill"
       id="path313" />
    <path
       d="M8.01847 11.0795C9.31392 11.0795 10.1946 10.2358 10.1918 9.05966C10.1946 7.94602 9.41619 7.14489 8.3679 7.14489C7.85653 7.14489 7.41619 7.35795 7.21165 7.64489H7.17756L7.32812 6.1875H9.87074V5.18182H6.31392L6.03835 8.25L7.1321 8.44602C7.31108 8.20455 7.65767 8.05398 8.00142 8.05398C8.58665 8.05682 9.0071 8.48011 9.0071 9.09091C9.0071 9.69602 8.59517 10.1136 8.01847 10.1136C7.52983 10.1136 7.13494 9.80682 7.10653 9.35511H5.91335C5.93608 10.3608 6.81392 11.0795 8.01847 11.0795Z"
       fill="context-fill"
       id="path315" />
  </g>
  <defs
     id="defs322">
    <clipPath
       id="clip0_13_17">
      <rect
         width="16"
         height="16"
         fill="context-fill"
         id="rect319" />
    </clipPath>
  </defs>
</svg>
